<svg xmlns="http://www.w3.org/2000/svg" style="display: none;">

  <!-- HP Heart Icon - 8-Bit Style -->
  <symbol id="icon-heart" viewBox="0 0 64 64">
    <!-- Main heart shape -->
    <rect x="12" y="16" width="8" height="8" fill="#f44336"/>
    <rect x="20" y="12" width="8" height="8" fill="#f44336"/>
    <rect x="28" y="16" width="8" height="8" fill="#f44336"/>
    <rect x="36" y="12" width="8" height="8" fill="#f44336"/>
    <rect x="44" y="16" width="8" height="8" fill="#f44336"/>
    <rect x="8" y="24" width="8" height="8" fill="#f44336"/>
    <rect x="16" y="24" width="8" height="8" fill="#f44336"/>
    <rect x="24" y="24" width="8" height="8" fill="#f44336"/>
    <rect x="32" y="24" width="8" height="8" fill="#f44336"/>
    <rect x="40" y="24" width="8" height="8" fill="#f44336"/>
    <rect x="48" y="24" width="8" height="8" fill="#f44336"/>
    <rect x="12" y="32" width="8" height="8" fill="#f44336"/>
    <rect x="20" y="32" width="8" height="8" fill="#f44336"/>
    <rect x="28" y="32" width="8" height="8" fill="#f44336"/>
    <rect x="36" y="32" width="8" height="8" fill="#f44336"/>
    <rect x="44" y="32" width="8" height="8" fill="#f44336"/>
    <rect x="16" y="40" width="8" height="8" fill="#f44336"/>
    <rect x="24" y="40" width="8" height="8" fill="#f44336"/>
    <rect x="32" y="40" width="8" height="8" fill="#f44336"/>
    <rect x="40" y="40" width="8" height="8" fill="#f44336"/>
    <rect x="24" y="48" width="8" height="8" fill="#f44336"/>
    <rect x="32" y="48" width="8" height="8" fill="#f44336"/>
    <rect x="28" y="52" width="8" height="8" fill="#f44336"/>
    <!-- Highlight -->
    <rect x="16" y="16" width="4" height="4" fill="#ff8a80"/>
    <rect x="20" y="16" width="4" height="4" fill="#ff8a80"/>
  </symbol>

  <!-- Shield (AC) Icon - 8-Bit Style -->
  <symbol id="icon-shield" viewBox="0 0 64 64">
    <!-- Shield body -->
    <rect x="16" y="8" width="32" height="8" fill="#78909C"/>
    <rect x="12" y="16" width="40" height="8" fill="#78909C"/>
    <rect x="12" y="24" width="40" height="8" fill="#90A4AE"/>
    <rect x="12" y="32" width="40" height="8" fill="#78909C"/>
    <rect x="16" y="40" width="32" height="8" fill="#78909C"/>
    <rect x="20" y="48" width="24" height="8" fill="#607D8B"/>
    <rect x="28" y="56" width="8" height="4" fill="#607D8B"/>
    <!-- Inner design -->
    <rect x="24" y="20" width="16" height="4" fill="#FFD54F"/>
    <rect x="28" y="24" width="8" height="16" fill="#FFD54F"/>
    <!-- Highlight -->
    <rect x="16" y="12" width="4" height="4" fill="#B0BEC5"/>
    <rect x="20" y="8" width="4" height="4" fill="#B0BEC5"/>
  </symbol>

  <!-- Spell Slot Crystal/Diamond - 8-Bit Style -->
  <symbol id="icon-crystal" viewBox="0 0 64 64">
    <!-- Diamond shape -->
    <rect x="28" y="8" width="8" height="8" fill="#7C4DFF"/>
    <rect x="24" y="16" width="16" height="8" fill="#7C4DFF"/>
    <rect x="20" y="24" width="24" height="8" fill="#651FFF"/>
    <rect x="20" y="32" width="24" height="8" fill="#6200EA"/>
    <rect x="24" y="40" width="16" height="8" fill="#6200EA"/>
    <rect x="28" y="48" width="8" height="8" fill="#4A148C"/>
    <!-- Highlights -->
    <rect x="24" y="16" width="4" height="4" fill="#B388FF"/>
    <rect x="28" y="12" width="4" height="4" fill="#E1BEE7"/>
    <rect x="20" y="24" width="4" height="4" fill="#B388FF"/>
    <!-- Sparkle -->
    <rect x="40" y="20" width="4" height="4" fill="#E8EAF6"/>
    <rect x="44" y="16" width="2" height="2" fill="#E8EAF6"/>
  </symbol>

  <!-- Moon (Long Rest) Icon - 8-Bit Style -->
  <symbol id="icon-moon" viewBox="0 0 64 64">
    <!-- Moon crescent -->
    <rect x="28" y="8" width="8" height="8" fill="#FFF59D"/>
    <rect x="36" y="12" width="8" height="8" fill="#FFF59D"/>
    <rect x="40" y="20" width="8" height="8" fill="#FFF59D"/>
    <rect x="40" y="28" width="8" height="8" fill="#FFF59D"/>
    <rect x="40" y="36" width="8" height="8" fill="#FFF59D"/>
    <rect x="36" y="44" width="8" height="8" fill="#FFF59D"/>
    <rect x="28" y="48" width="8" height="8" fill="#FFF59D"/>
    <rect x="20" y="44" width="8" height="8" fill="#FFF59D"/>
    <rect x="16" y="36" width="8" height="8" fill="#FFEE58"/>
    <rect x="16" y="28" width="8" height="8" fill="#FFEE58"/>
    <rect x="16" y="20" width="8" height="8" fill="#FFF59D"/>
    <rect x="20" y="12" width="8" height="8" fill="#FFF59D"/>
    <!-- Stars -->
    <rect x="8" y="16" width="4" height="4" fill="#E8EAF6"/>
    <rect x="48" y="8" width="4" height="4" fill="#E8EAF6"/>
    <rect x="52" y="44" width="4" height="4" fill="#E8EAF6"/>
  </symbol>

  <!-- Sun (Short Rest) Icon - 8-Bit Style -->
  <symbol id="icon-sun" viewBox="0 0 64 64">
    <!-- Sun center -->
    <rect x="24" y="24" width="16" height="16" fill="#FFB300"/>
    <rect x="20" y="28" width="8" height="8" fill="#FFC107"/>
    <rect x="36" y="28" width="8" height="8" fill="#FFC107"/>
    <rect x="28" y="20" width="8" height="8" fill="#FFC107"/>
    <rect x="28" y="36" width="8" height="8" fill="#FFC107"/>
    <!-- Rays -->
    <rect x="28" y="8" width="8" height="8" fill="#FFD54F"/>
    <rect x="28" y="48" width="8" height="8" fill="#FFD54F"/>
    <rect x="8" y="28" width="8" height="8" fill="#FFD54F"/>
    <rect x="48" y="28" width="8" height="8" fill="#FFD54F"/>
    <!-- Diagonal rays -->
    <rect x="12" y="12" width="8" height="8" fill="#FFECB3"/>
    <rect x="44" y="12" width="8" height="8" fill="#FFECB3"/>
    <rect x="12" y="44" width="8" height="8" fill="#FFECB3"/>
    <rect x="44" y="44" width="8" height="8" fill="#FFECB3"/>
    <!-- Center highlight -->
    <rect x="26" y="26" width="4" height="4" fill="#FFF8E1"/>
  </symbol>

  <!-- Equipment Backpack Icon - 8-Bit Style -->
  <symbol id="icon-backpack" viewBox="0 0 64 64">
    <!-- Backpack body -->
    <rect x="16" y="20" width="32" height="36" fill="#8D6E63"/>
    <rect x="20" y="24" width="24" height="28" fill="#6D4C41"/>
    <!-- Top flap -->
    <rect x="20" y="12" width="24" height="8" fill="#A1887F"/>
    <rect x="24" y="8" width="16" height="8" fill="#8D6E63"/>
    <!-- Pocket -->
    <rect x="24" y="36" width="16" height="12" fill="#5D4037"/>
    <rect x="28" y="32" width="8" height="4" fill="#4E342E"/>
    <!-- Straps -->
    <rect x="12" y="24" width="4" height="28" fill="#A1887F"/>
    <rect x="48" y="24" width="4" height="28" fill="#A1887F"/>
    <!-- Buckles -->
    <rect x="28" y="16" width="8" height="4" fill="#FFD54F"/>
    <rect x="28" y="40" width="8" height="4" fill="#FFD54F"/>
  </symbol>

  <!-- Scroll (Spells) Icon - 8-Bit Style -->
  <symbol id="icon-scroll" viewBox="0 0 64 64">
    <!-- Scroll body -->
    <rect x="16" y="16" width="32" height="32" fill="#FFF8E1"/>
    <rect x="20" y="12" width="24" height="8" fill="#FFECB3"/>
    <rect x="20" y="44" width="24" height="8" fill="#FFECB3"/>
    <!-- Roll ends -->
    <rect x="12" y="8" width="8" height="8" fill="#D7CCC8"/>
    <rect x="44" y="8" width="8" height="8" fill="#D7CCC8"/>
    <rect x="12" y="48" width="8" height="8" fill="#D7CCC8"/>
    <rect x="44" y="48" width="8" height="8" fill="#D7CCC8"/>
    <!-- Text lines -->
    <rect x="20" y="20" width="24" height="2" fill="#5D4037"/>
    <rect x="20" y="26" width="20" height="2" fill="#5D4037"/>
    <rect x="20" y="32" width="24" height="2" fill="#5D4037"/>
    <rect x="20" y="38" width="16" height="2" fill="#5D4037"/>
    <!-- Highlight -->
    <rect x="16" y="16" width="4" height="4" fill="#FFFDE7"/>
  </symbol>

  <!-- D20 Dice Icon - 8-Bit Style -->
  <symbol id="icon-d20" viewBox="0 0 64 64">
    <!-- Main body -->
    <rect x="24" y="8" width="16" height="8" fill="#6366f1"/>
    <rect x="16" y="16" width="32" height="8" fill="#6366f1"/>
    <rect x="12" y="24" width="40" height="8" fill="#4f46e5"/>
    <rect x="12" y="32" width="40" height="8" fill="#4338ca"/>
    <rect x="16" y="40" width="32" height="8" fill="#4338ca"/>
    <rect x="24" y="48" width="16" height="8" fill="#3730a3"/>
    <!-- Edge lines -->
    <rect x="28" y="12" width="8" height="4" fill="#818cf8"/>
    <rect x="20" y="20" width="4" height="24" fill="#818cf8"/>
    <rect x="40" y="20" width="4" height="24" fill="#4338ca"/>
    <!-- Number -->
    <rect x="28" y="28" width="8" height="8" fill="#c7d2fe"/>
    <!-- Highlight -->
    <rect x="24" y="16" width="4" height="4" fill="#a5b4fc"/>
  </symbol>

  <!-- D6 Dice Icon - 8-Bit Style -->
  <symbol id="icon-d6" viewBox="0 0 64 64">
    <!-- Cube body -->
    <rect x="16" y="16" width="32" height="32" fill="#ef4444"/>
    <rect x="12" y="12" width="32" height="32" fill="#dc2626"/>
    <!-- Top face (lighter) -->
    <rect x="12" y="12" width="32" height="8" fill="#f87171"/>
    <!-- Dots (6 pattern) -->
    <rect x="16" y="20" width="4" height="4" fill="#fef2f2"/>
    <rect x="16" y="28" width="4" height="4" fill="#fef2f2"/>
    <rect x="16" y="36" width="4" height="4" fill="#fef2f2"/>
    <rect x="36" y="20" width="4" height="4" fill="#fef2f2"/>
    <rect x="36" y="28" width="4" height="4" fill="#fef2f2"/>
    <rect x="36" y="36" width="4" height="4" fill="#fef2f2"/>
    <!-- Highlight -->
    <rect x="16" y="12" width="8" height="4" fill="#fca5a5"/>
  </symbol>

  <!-- D8 Dice Icon - 8-Bit Style -->
  <symbol id="icon-d8" viewBox="0 0 64 64">
    <!-- Octahedron shape -->
    <rect x="28" y="8" width="8" height="8" fill="#10b981"/>
    <rect x="24" y="16" width="16" height="8" fill="#10b981"/>
    <rect x="20" y="24" width="24" height="8" fill="#059669"/>
    <rect x="16" y="32" width="32" height="8" fill="#047857"/>
    <rect x="20" y="40" width="24" height="8" fill="#047857"/>
    <rect x="24" y="48" width="16" height="8" fill="#065f46"/>
    <rect x="28" y="52" width="8" height="4" fill="#064e3b"/>
    <!-- Edge highlights -->
    <rect x="28" y="12" width="4" height="4" fill="#34d399"/>
    <rect x="20" y="24" width="4" height="4" fill="#34d399"/>
    <rect x="40" y="24" width="4" height="4" fill="#065f46"/>
    <!-- Number area -->
    <rect x="28" y="28" width="8" height="8" fill="#6ee7b7"/>
  </symbol>

  <!-- Potion Bottle Icon - 8-Bit Style -->
  <symbol id="icon-potion" viewBox="0 0 64 64">
    <!-- Bottle neck -->
    <rect x="28" y="8" width="8" height="4" fill="#A1887F"/>
    <rect x="26" y="12" width="12" height="4" fill="#BCAAA4"/>
    <rect x="28" y="16" width="8" height="8" fill="#E0E0E0"/>
    <!-- Bottle body -->
    <rect x="20" y="24" width="24" height="8" fill="#E0E0E0"/>
    <rect x="16" y="32" width="32" height="16" fill="#E0E0E0"/>
    <rect x="20" y="48" width="24" height="4" fill="#E0E0E0"/>
    <!-- Liquid -->
    <rect x="20" y="36" width="24" height="12" fill="#f44336"/>
    <rect x="24" y="32" width="16" height="4" fill="#e53935"/>
    <!-- Highlight -->
    <rect x="24" y="36" width="4" height="8" fill="#ff8a80"/>
    <rect x="18" y="32" width="4" height="4" fill="#FAFAFA"/>
    <!-- Bubbles -->
    <rect x="36" y="40" width="4" height="4" fill="#ffcdd2"/>
  </symbol>

  <!-- Coin/Gold Icon - 8-Bit Style -->
  <symbol id="icon-coin" viewBox="0 0 64 64">
    <!-- Coin circle -->
    <rect x="20" y="12" width="24" height="8" fill="#FFC107"/>
    <rect x="16" y="20" width="8" height="8" fill="#FFC107"/>
    <rect x="40" y="20" width="8" height="8" fill="#FFA000"/>
    <rect x="12" y="28" width="8" height="8" fill="#FFC107"/>
    <rect x="44" y="28" width="8" height="8" fill="#FFA000"/>
    <rect x="16" y="36" width="8" height="8" fill="#FFB300"/>
    <rect x="40" y="36" width="8" height="8" fill="#FF8F00"/>
    <rect x="20" y="44" width="24" height="8" fill="#FFA000"/>
    <!-- Inner circle -->
    <rect x="24" y="20" width="16" height="24" fill="#FFD54F"/>
    <!-- Symbol (G for Gold) -->
    <rect x="28" y="28" width="8" height="4" fill="#FF8F00"/>
    <rect x="28" y="24" width="8" height="4" fill="#FF8F00"/>
    <rect x="28" y="36" width="8" height="4" fill="#FF8F00"/>
    <rect x="24" y="28" width="4" height="8" fill="#FF8F00"/>
    <!-- Shine -->
    <rect x="20" y="16" width="4" height="4" fill="#FFECB3"/>
  </symbol>

  <!-- Sword Icon - 8-Bit Style -->
  <symbol id="icon-sword" viewBox="0 0 64 64">
    <!-- Blade -->
    <rect x="40" y="8" width="4" height="4" fill="#E0E0E0"/>
    <rect x="36" y="12" width="8" height="4" fill="#E0E0E0"/>
    <rect x="32" y="16" width="8" height="4" fill="#BDBDBD"/>
    <rect x="28" y="20" width="8" height="4" fill="#BDBDBD"/>
    <rect x="24" y="24" width="8" height="4" fill="#9E9E9E"/>
    <rect x="20" y="28" width="8" height="4" fill="#9E9E9E"/>
    <!-- Guard -->
    <rect x="12" y="32" width="20" height="4" fill="#FFD54F"/>
    <!-- Handle -->
    <rect x="12" y="36" width="4" height="12" fill="#8D6E63"/>
    <rect x="16" y="40" width="4" height="4" fill="#6D4C41"/>
    <!-- Pommel -->
    <rect x="8" y="48" width="8" height="8" fill="#FFD54F"/>
    <!-- Highlight -->
    <rect x="36" y="12" width="4" height="4" fill="#FAFAFA"/>
  </symbol>

  <!-- Magic Wand/Staff Icon - 8-Bit Style -->
  <symbol id="icon-wand" viewBox="0 0 64 64">
    <!-- Staff body -->
    <rect x="28" y="24" width="8" height="32" fill="#5D4037"/>
    <rect x="24" y="28" width="4" height="24" fill="#4E342E"/>
    <rect x="36" y="28" width="4" height="24" fill="#6D4C41"/>
    <!-- Gem top -->
    <rect x="24" y="8" width="16" height="8" fill="#AB47BC"/>
    <rect x="28" y="4" width="8" height="8" fill="#CE93D8"/>
    <rect x="20" y="12" width="8" height="8" fill="#9C27B0"/>
    <rect x="36" y="12" width="8" height="8" fill="#9C27B0"/>
    <rect x="28" y="16" width="8" height="8" fill="#7B1FA2"/>
    <!-- Sparkles -->
    <rect x="12" y="8" width="4" height="4" fill="#E1BEE7"/>
    <rect x="48" y="12" width="4" height="4" fill="#E1BEE7"/>
    <rect x="16" y="20" width="2" height="2" fill="#F3E5F5"/>
    <rect x="46" y="4" width="2" height="2" fill="#F3E5F5"/>
    <!-- Highlight -->
    <rect x="28" y="8" width="4" height="4" fill="#E1BEE7"/>
  </symbol>

</svg>
